<svg width="22" height="17" viewBox="0 0 22 17" fill="none" xmlns="http://www.w3.org/2000/svg">
<path d="M18.5858 7.91511L7.00013 7.91511C6.44787 7.91511 6.00014 8.35438 6.00014 8.89621C6.00014 9.43804 6.44787 9.8773 7.00014 9.8773L18.5858 9.8773L17.2929 11.1457C16.9023 11.5288 16.9023 12.15 17.2929 12.5332C17.6833 12.9163 18.3165 12.9163 18.7071 12.5332L21.7069 9.5901C21.7301 9.56741 21.7519 9.54366 21.7727 9.51881C21.7778 9.51273 21.7821 9.50619 21.7871 9.49997C21.8023 9.48094 21.8173 9.46184 21.8311 9.4417C21.8351 9.43581 21.8383 9.4296 21.8423 9.42364C21.856 9.40258 21.8695 9.38133 21.8816 9.35915C21.8839 9.35477 21.8859 9.35013 21.8882 9.34575C21.9008 9.32174 21.9129 9.29741 21.9235 9.27229C21.9249 9.26922 21.9258 9.26595 21.9271 9.26281C21.9379 9.23639 21.948 9.20964 21.9565 9.1821C21.9577 9.17863 21.9583 9.17503 21.9593 9.1715C21.9673 9.14449 21.9747 9.11722 21.9804 9.08929C21.9821 9.08098 21.9828 9.07241 21.9843 9.06404C21.9885 9.04089 21.9926 9.01773 21.9949 8.99412C21.9983 8.96174 22 8.92904 22 8.89621C22 8.86337 21.9983 8.83067 21.9949 8.79823C21.9926 8.77429 21.9883 8.75094 21.9843 8.72759C21.9828 8.71948 21.9821 8.71117 21.9804 8.70313C21.9747 8.67494 21.9673 8.6474 21.9592 8.62013C21.9582 8.61692 21.9576 8.61352 21.9566 8.61032C21.948 8.58265 21.9379 8.55564 21.9269 8.52895C21.9257 8.52607 21.9249 8.523 21.9236 8.52012C21.9129 8.49481 21.9007 8.47035 21.888 8.44621C21.8858 8.44196 21.8839 8.43751 21.8817 8.43326C21.8694 8.41096 21.8559 8.3895 21.8419 8.36825C21.8382 8.36249 21.835 8.35641 21.8311 8.35078C21.8173 8.33057 21.8022 8.31134 21.787 8.29225C21.7821 8.2861 21.7778 8.27962 21.7728 8.2736C21.7519 8.24882 21.7301 8.22501 21.7069 8.20231L18.7071 5.25922C18.5119 5.06758 18.2559 4.97183 18 4.97183C17.7441 4.97183 17.4881 5.06758 17.2929 5.25922C16.9024 5.64237 16.9024 6.26354 17.2929 6.64669L18.5858 7.91511Z" fill="#3E4E6C"/>
<path d="M8.18007 16.9217C10.9097 16.9217 13.4493 15.5931 14.9736 13.3679C15.2816 12.9183 15.1597 12.3087 14.7014 12.0064C14.243 11.7043 13.6217 11.8237 13.3136 12.2735C12.1615 13.9554 10.2425 14.9595 8.18007 14.9595C4.7724 14.9595 2 12.2395 2 8.89624C2 5.55293 4.7724 2.833 8.18007 2.833C10.2364 2.833 12.1523 3.83261 13.3053 5.50688C13.6145 5.95589 14.236 6.07389 14.6937 5.7706C15.1513 5.46724 15.2717 4.85739 14.9625 4.40845C13.4371 2.19326 10.9017 0.870812 8.18007 0.870812C3.6696 0.870812 -1.55773e-07 4.47097 2.3855e-07 8.89624C6.32874e-07 13.3215 3.6696 16.9217 8.18007 16.9217Z" fill="#3E4E6C"/>
</svg>
