<svg xmlns="http://www.w3.org/2000/svg" width="16" height="16" viewBox="0 0 13 13" fill="none">
<path d="M7.77778 3H1.11111C0.494444 3 0 3.5 0 4.11111V11.8889C0 12.5 0.494444 13 1.11111 13H8.88889C9.5 13 10 12.5 10 11.8889V5.22222L7.77778 3ZM8.88889 11.8889H1.11111V4.11111H7.31667L8.88889 5.68333V11.8889ZM5 8C4.07778 8 3.33333 8.74444 3.33333 9.66667C3.33333 10.5889 4.07778 11.3333 5 11.3333C5.92222 11.3333 6.66667 10.5889 6.66667 9.66667C6.66667 8.74444 5.92222 8 5 8ZM1.66667 4.66667H6.66667V6.88889H1.66667V4.66667Z" fill="#00D7FF"/>
</svg>