<svg width="14" height="14" viewBox="0 0 14 14" fill="none" xmlns="http://www.w3.org/2000/svg">
<path d="M13.3909 4.77306L9.53551 4.38935C9.29247 4.3661 9.08246 4.20332 8.98314 3.95914L7.60224 0.436029C7.3813 -0.145343 6.59683 -0.145343 6.37589 0.436029L5.00603 3.95914C4.91765 4.20332 4.69671 4.3661 4.45367 4.38935L0.598185 4.77306C0.0237292 4.8312 -0.208263 5.58698 0.222579 5.99394L3.128 8.67988C3.3158 8.85429 3.39313 9.11009 3.3379 9.36589L2.46517 13.1331C2.3326 13.7262 2.9402 14.2144 3.44837 13.9006L6.66312 11.9122C6.87301 11.7843 7.1271 11.7843 7.337 11.9122L10.5519 13.9006C11.06 14.2144 11.6676 13.7378 11.5349 13.1331L10.6733 9.36589C10.618 9.11009 10.6954 8.85429 10.8832 8.67988L13.7886 5.99394C14.2084 5.58698 13.9653 4.8312 13.3909 4.77306Z" fill="#B9C3C8"/>
</svg>
